<svg id="Layer_1" data-name="Layer 1" xmlns="http://www.w3.org/2000/svg" viewBox="0 0 1080 1080"><defs><style>.cls-1{fill:#fc3030;}.cls-2{fill:#102539;}</style></defs><rect class="cls-1" x="97.02" y="551.29" width="11.83" height="60.17" rx="2.85"/><path class="cls-1" d="M130.58,578.86v43.43a9.5,9.5,0,0,1-9.49,9.5H84.79a9.5,9.5,0,0,1-9.5-9.5V578.86a2.37,2.37,0,0,1,2.37-2.37h7.1a2.37,2.37,0,0,1,2.36,2.37v31.6a9.49,9.49,0,0,0,9.5,9.49h12.64a9.49,9.49,0,0,0,9.49-9.49v-31.6a2.37,2.37,0,0,1,2.37-2.37h7.1A2.36,2.36,0,0,1,130.58,578.86Z"/><rect class="cls-1" x="23.92" y="547.21" width="60.17" height="11.83" rx="2.85" transform="translate(-269.33 101.11) rotate(-30)"/><path class="cls-1" d="M70,575.81,32.4,597.52a9.5,9.5,0,0,1-13-3.47L1.27,562.61a9.5,9.5,0,0,1,3.48-13l37.61-21.72a2.37,2.37,0,0,1,3.23.87l3.55,6.15a2.36,2.36,0,0,1-.86,3.23L20.91,554a9.49,9.49,0,0,0-3.47,13l6.31,10.94a9.5,9.5,0,0,0,13,3.48l27.36-15.8a2.37,2.37,0,0,1,3.23.87l3.55,6.15A2.36,2.36,0,0,1,70,575.81Z"/><rect class="cls-1" x="48.09" y="466.54" width="11.83" height="60.17" rx="2.85" transform="translate(-403.08 295.08) rotate(-60)"/><path class="cls-1" d="M42.36,521.82,4.75,500.11a9.51,9.51,0,0,1-3.48-13L19.42,455.7a9.51,9.51,0,0,1,13-3.48L70,473.94a2.36,2.36,0,0,1,.86,3.23l-3.55,6.15a2.36,2.36,0,0,1-3.23.86L36.73,468.39a9.5,9.5,0,0,0-13,3.47L17.44,482.8a9.5,9.5,0,0,0,3.47,13l27.37,15.8a2.36,2.36,0,0,1,.86,3.23L45.59,521A2.36,2.36,0,0,1,42.36,521.82Z"/><rect class="cls-1" x="97.02" y="438.29" width="11.83" height="60.17" rx="2.85"/><path class="cls-1" d="M75.29,470.89V427.46a9.5,9.5,0,0,1,9.5-9.5h36.3a9.49,9.49,0,0,1,9.49,9.5v43.43a2.35,2.35,0,0,1-2.36,2.36h-7.1a2.36,2.36,0,0,1-2.37-2.36v-31.6a9.5,9.5,0,0,0-9.5-9.5H96.62a9.5,9.5,0,0,0-9.5,9.5v31.6a2.36,2.36,0,0,1-2.36,2.36h-7.1A2.36,2.36,0,0,1,75.29,470.89Z"/><rect class="cls-1" x="121.79" y="490.71" width="60.17" height="11.83" rx="2.85" transform="translate(-227.96 142.47) rotate(-30)"/><path class="cls-1" d="M135.87,473.94l37.61-21.72a9.5,9.5,0,0,1,13,3.48l18.15,31.43a9.5,9.5,0,0,1-3.48,13l-37.61,21.71a2.36,2.36,0,0,1-3.23-.86l-3.55-6.15a2.37,2.37,0,0,1,.87-3.23L185,495.78a9.51,9.51,0,0,0,3.48-13l-6.32-10.94a9.49,9.49,0,0,0-13-3.47l-27.37,15.79a2.36,2.36,0,0,1-3.23-.86L135,477.17A2.36,2.36,0,0,1,135.87,473.94Z"/><rect class="cls-1" x="145.96" y="523.04" width="11.83" height="60.17" rx="2.85" transform="matrix(0.5, -0.87, 0.87, 0.5, -403.08, 408.09)"/><path class="cls-1" d="M163.51,527.92l37.61,21.72a9.49,9.49,0,0,1,3.48,13l-18.15,31.44a9.49,9.49,0,0,1-13,3.47l-37.61-21.71a2.36,2.36,0,0,1-.87-3.23l3.55-6.15a2.37,2.37,0,0,1,3.23-.87l27.37,15.8a9.49,9.49,0,0,0,13-3.48l6.32-10.94A9.5,9.5,0,0,0,185,554l-27.36-15.8a2.37,2.37,0,0,1-.87-3.23l3.55-6.15A2.37,2.37,0,0,1,163.51,527.92Z"/><path class="cls-2" d="M258.45,452.37a37.37,37.37,0,0,1,11.33,1.53,22,22,0,0,1,7.9,4.29,17,17,0,0,1,4.63,6.59,22.9,22.9,0,0,1,1.51,8.4,23.2,23.2,0,0,1-1.58,8.68,18.18,18.18,0,0,1-4.74,6.8,22.13,22.13,0,0,1-7.92,4.42,35.54,35.54,0,0,1-11.13,1.58h-9.07v23H237.24V452.37Zm0,32.81a18.44,18.44,0,0,0,5.82-.83,11,11,0,0,0,4.13-2.4,9.58,9.58,0,0,0,2.46-3.79,14.29,14.29,0,0,0,.82-5,13,13,0,0,0-.82-4.74,9.3,9.3,0,0,0-2.43-3.61,10.76,10.76,0,0,0-4.11-2.28,19.35,19.35,0,0,0-5.87-.79h-9.07v23.42Z"/><path class="cls-2" d="M344.07,517.63h-11a4.81,4.81,0,0,1-4.51-2.43l-13.72-20.9a4.87,4.87,0,0,0-1.69-1.67,6,6,0,0,0-2.73-.5h-5.19v25.5H293.11V452.37H313a41.77,41.77,0,0,1,11.4,1.37,22,22,0,0,1,7.81,3.86,15.24,15.24,0,0,1,4.49,5.94,20.65,20.65,0,0,1,.47,13.83,18.1,18.1,0,0,1-2.8,5.33,19.11,19.11,0,0,1-4.51,4.2,22.65,22.65,0,0,1-6.12,2.84,12.15,12.15,0,0,1,2.17,1.6,11.56,11.56,0,0,1,1.8,2.19Zm-31.23-34.21a18.54,18.54,0,0,0,6-.86,11.53,11.53,0,0,0,4.2-2.37,9.53,9.53,0,0,0,2.46-3.58,12.49,12.49,0,0,0,.81-4.56,9.28,9.28,0,0,0-3.27-7.63q-3.27-2.66-10-2.66h-7.76v21.66Z"/><path class="cls-2" d="M412.5,485a36.41,36.41,0,0,1-2.37,13.29,31.34,31.34,0,0,1-6.7,10.59,30.48,30.48,0,0,1-10.43,7,37.67,37.67,0,0,1-27,0,30.76,30.76,0,0,1-10.45-7,31.29,31.29,0,0,1-6.74-10.59,38.15,38.15,0,0,1,0-26.58,31.15,31.15,0,0,1,6.74-10.58,30.78,30.78,0,0,1,10.45-7,35.2,35.2,0,0,1,13.5-2.5,36.49,36.49,0,0,1,9.34,1.15,33,33,0,0,1,8,3.25,29.86,29.86,0,0,1,6.56,5.1,31.16,31.16,0,0,1,5,6.7,33.28,33.28,0,0,1,3.09,8A38.62,38.62,0,0,1,412.5,485Zm-12.41,0a30.08,30.08,0,0,0-1.45-9.64,20.59,20.59,0,0,0-4.11-7.24,17.57,17.57,0,0,0-6.47-4.56,24.2,24.2,0,0,0-17.2,0,17.85,17.85,0,0,0-6.5,4.56,20.47,20.47,0,0,0-4.13,7.24,33,33,0,0,0,0,19.28,20.21,20.21,0,0,0,4.13,7.22,18,18,0,0,0,6.5,4.54,24.2,24.2,0,0,0,17.2,0,17.76,17.76,0,0,0,6.47-4.54,20.32,20.32,0,0,0,4.11-7.22A30.08,30.08,0,0,0,400.09,485Z"/><path class="cls-2" d="M435.38,462v19.31h24.47v9.71H435.38v26.58H423.2V452.37h41.16V462Z"/><path class="cls-2" d="M463.14,511.5a6.9,6.9,0,0,1,.52-2.67,6.44,6.44,0,0,1,1.42-2.16,6.61,6.61,0,0,1,2.17-1.45,6.78,6.78,0,0,1,2.7-.54,6.66,6.66,0,0,1,2.69.54,7.06,7.06,0,0,1,2.17,1.45,6.81,6.81,0,0,1,1.46,7.51,6.87,6.87,0,0,1-1.46,2.15,6.91,6.91,0,0,1-4.86,1.94,7.13,7.13,0,0,1-2.7-.52,6.54,6.54,0,0,1-2.17-1.42,6.61,6.61,0,0,1-1.42-2.15A6.81,6.81,0,0,1,463.14,511.5Z"/><path class="cls-2" d="M572.14,485a36.41,36.41,0,0,1-2.37,13.29,31.19,31.19,0,0,1-6.7,10.59,30.48,30.48,0,0,1-10.43,7,37.64,37.64,0,0,1-27,0,30.56,30.56,0,0,1-10.45-7,31.16,31.16,0,0,1-6.75-10.59,38.15,38.15,0,0,1,0-26.58,31,31,0,0,1,6.75-10.58,30.59,30.59,0,0,1,10.45-7,35.15,35.15,0,0,1,13.49-2.5,36.44,36.44,0,0,1,9.34,1.15,33,33,0,0,1,8,3.25,29.92,29.92,0,0,1,6.57,5.1,31.11,31.11,0,0,1,4.94,6.7,33.28,33.28,0,0,1,3.09,8A38.1,38.1,0,0,1,572.14,485Zm-12.41,0a29.81,29.81,0,0,0-1.45-9.64,20.73,20.73,0,0,0-4.1-7.24,17.69,17.69,0,0,0-6.48-4.56,24.2,24.2,0,0,0-17.2,0,17.85,17.85,0,0,0-6.5,4.56,20.63,20.63,0,0,0-4.13,7.24,33,33,0,0,0,0,19.28,20.36,20.36,0,0,0,4.13,7.22,18,18,0,0,0,6.5,4.54,24.2,24.2,0,0,0,17.2,0,17.88,17.88,0,0,0,6.48-4.54,20.46,20.46,0,0,0,4.1-7.22A29.81,29.81,0,0,0,559.73,485Z"/><path class="cls-2" d="M577.65,511.5a6.9,6.9,0,0,1,.52-2.67,6.44,6.44,0,0,1,1.42-2.16,6.61,6.61,0,0,1,2.17-1.45,6.78,6.78,0,0,1,2.7-.54,6.66,6.66,0,0,1,2.69.54,7.06,7.06,0,0,1,2.17,1.45,6.86,6.86,0,0,1,1.46,7.51,6.87,6.87,0,0,1-1.46,2.15,6.91,6.91,0,0,1-4.86,1.94,7.13,7.13,0,0,1-2.7-.52,6.54,6.54,0,0,1-2.17-1.42,6.61,6.61,0,0,1-1.42-2.15A6.81,6.81,0,0,1,577.65,511.5Z"/><path class="cls-2" d="M677.31,517.63h-9.39a4,4,0,0,1-2.58-.79,4.87,4.87,0,0,1-1.48-2L659,501.57h-27l-4.87,13.31a4.41,4.41,0,0,1-1.4,1.9,3.9,3.9,0,0,1-2.57.85h-9.48l25.68-65.26h12.37ZM655.87,493l-8-21.71c-.39-1-.79-2.11-1.22-3.43s-.84-2.75-1.26-4.29c-.39,1.54-.8,3-1.22,4.31s-.82,2.51-1.22,3.5L635.1,493Z"/><path class="cls-2" d="M680.69,511.5a6.9,6.9,0,0,1,.52-2.67,6.44,6.44,0,0,1,1.42-2.16,6.72,6.72,0,0,1,2.17-1.45,6.79,6.79,0,0,1,2.71-.54,6.65,6.65,0,0,1,2.68.54,7.06,7.06,0,0,1,2.17,1.45,6.7,6.7,0,0,1,1.46,2.16,6.58,6.58,0,0,1,.55,2.67,6.49,6.49,0,0,1-.55,2.68,6.87,6.87,0,0,1-1.46,2.15,6.91,6.91,0,0,1-4.85,1.94,7.15,7.15,0,0,1-2.71-.52,6.39,6.39,0,0,1-3.59-3.57A6.81,6.81,0,0,1,680.69,511.5Z"/><path class="cls-2" d="M749.93,452.37a42.5,42.5,0,0,1,11,1.22,20.88,20.88,0,0,1,7.47,3.47,13.47,13.47,0,0,1,4.27,5.46,18.49,18.49,0,0,1,1.35,7.23,14.3,14.3,0,0,1-.67,4.4,12.73,12.73,0,0,1-2.1,3.92,15.66,15.66,0,0,1-3.61,3.32,21.86,21.86,0,0,1-5.22,2.53q13.46,3,13.45,14.53a18.38,18.38,0,0,1-1.58,7.67,16.72,16.72,0,0,1-4.6,6.07,21.73,21.73,0,0,1-7.45,4,32.64,32.64,0,0,1-10.11,1.44H727.45V452.37Zm-10.34,9.39v18.86h9.66q6.22,0,9.41-2.25t3.18-7.18q0-5.1-2.89-7.27t-9-2.16Zm12.28,46.4a17.23,17.23,0,0,0,5.68-.82,9.8,9.8,0,0,0,3.68-2.16,8,8,0,0,0,2-3.16,11.8,11.8,0,0,0,.61-3.84,10.22,10.22,0,0,0-.68-3.81,7.17,7.17,0,0,0-2.12-2.89,9.82,9.82,0,0,0-3.72-1.83,20.83,20.83,0,0,0-5.49-.63H739.59v19.14Z"/><path class="cls-2" d="M841.78,517.63h-9.39a4,4,0,0,1-2.57-.79,4.89,4.89,0,0,1-1.49-2l-4.88-13.31h-27l-4.88,13.31a4.41,4.41,0,0,1-1.4,1.9,3.9,3.9,0,0,1-2.57.85h-9.48l25.68-65.26h12.37ZM820.34,493l-8-21.71c-.39-1-.79-2.11-1.21-3.43s-.85-2.75-1.27-4.29c-.39,1.54-.8,3-1.22,4.31s-.83,2.51-1.22,3.5L799.58,493Z"/><path class="cls-2" d="M919.32,452.37v65.26h-10.7V475.48q0-2.53.27-5.46l-19.72,37.05a4.55,4.55,0,0,1-4.29,2.67h-1.71a4.55,4.55,0,0,1-4.29-2.67l-20-37.19c.09,1,.16,2,.22,2.93s.09,1.86.09,2.67v42.15H848.55V452.37h9.16c.54,0,1,0,1.4,0a3.83,3.83,0,0,1,1.06.23,2.33,2.33,0,0,1,.86.59,5.18,5.18,0,0,1,.74,1.08l19.55,36.24c.51,1,1,2,1.42,3s.86,2.08,1.28,3.16c.42-1.11.86-2.19,1.31-3.23s.93-2,1.45-3l19.27-36.15a4.55,4.55,0,0,1,.77-1.08,2.48,2.48,0,0,1,.88-.59,3.75,3.75,0,0,1,1.06-.23c.39,0,.86,0,1.4,0Z"/><path class="cls-2" d="M946,517.63H933.85V452.37H946Z"/><path class="cls-2" d="M1011.58,517.63h-11a4.83,4.83,0,0,1-4.52-2.43l-13.72-20.9a4.78,4.78,0,0,0-1.69-1.67,6,6,0,0,0-2.73-.5h-5.19v25.5H960.62V452.37h19.9a41.77,41.77,0,0,1,11.4,1.37,22,22,0,0,1,7.81,3.86,15.14,15.14,0,0,1,4.49,5.94,20.65,20.65,0,0,1,.47,13.83,18.1,18.1,0,0,1-2.8,5.33,19.11,19.11,0,0,1-4.51,4.2,22.65,22.65,0,0,1-6.12,2.84,11.8,11.8,0,0,1,2.17,1.6,12,12,0,0,1,1.81,2.19Zm-31.24-34.21a18.54,18.54,0,0,0,6-.86,11.53,11.53,0,0,0,4.2-2.37,9.42,9.42,0,0,0,2.46-3.58,12.49,12.49,0,0,0,.81-4.56,9.28,9.28,0,0,0-3.27-7.63q-3.27-2.66-10-2.66h-7.76v21.66Z"/><path class="cls-2" d="M1080,485a36.41,36.41,0,0,1-2.37,13.29,31.19,31.19,0,0,1-6.7,10.59,30.48,30.48,0,0,1-10.43,7,37.64,37.64,0,0,1-27,0,30.56,30.56,0,0,1-10.45-7,31.16,31.16,0,0,1-6.75-10.59,38.15,38.15,0,0,1,0-26.58,31,31,0,0,1,6.75-10.58,30.59,30.59,0,0,1,10.45-7,35.15,35.15,0,0,1,13.49-2.5,36.44,36.44,0,0,1,9.34,1.15,33,33,0,0,1,8,3.25,29.69,29.69,0,0,1,6.57,5.1,31.11,31.11,0,0,1,4.94,6.7,33.28,33.28,0,0,1,3.09,8A38.1,38.1,0,0,1,1080,485Zm-12.41,0a29.81,29.81,0,0,0-1.45-9.64,20.73,20.73,0,0,0-4.1-7.24,17.69,17.69,0,0,0-6.48-4.56,24.2,24.2,0,0,0-17.2,0,17.85,17.85,0,0,0-6.5,4.56,20.63,20.63,0,0,0-4.13,7.24,33,33,0,0,0,0,19.28,20.36,20.36,0,0,0,4.13,7.22,18,18,0,0,0,6.5,4.54,24.2,24.2,0,0,0,17.2,0,17.88,17.88,0,0,0,6.48-4.54,20.46,20.46,0,0,0,4.1-7.22A29.81,29.81,0,0,0,1067.59,485Z"/><path class="cls-2" d="M276.76,591.73l-.05,7.07H237.24V534.74h39.47v7.06h-30.8v21.28h24.94v6.8H245.91v21.85Z"/><path class="cls-2" d="M340.77,534.74V598.8h-4.34a3.68,3.68,0,0,1-1.72-.36,4.27,4.27,0,0,1-1.36-1.21L296.29,549c.06.75.1,1.48.13,2.19s.05,1.39.05,2V598.8h-7.6V534.74h4.47a6.75,6.75,0,0,1,1,.06,2.9,2.9,0,0,1,.72.23,2.42,2.42,0,0,1,.62.45,6.17,6.17,0,0,1,.67.73l37.06,48.24c-.06-.78-.11-1.53-.15-2.26s-.07-1.42-.07-2.08V534.74Z"/><path class="cls-2" d="M409.16,568v24.58a35.84,35.84,0,0,1-10.3,5.21,39.79,39.79,0,0,1-12,1.72,38.64,38.64,0,0,1-13.94-2.39,30.6,30.6,0,0,1-10.62-6.71,29.13,29.13,0,0,1-6.77-10.34,36.06,36.06,0,0,1-2.37-13.28,37.37,37.37,0,0,1,2.3-13.37A29.6,29.6,0,0,1,362,543.08a29,29,0,0,1,10.33-6.69A37.12,37.12,0,0,1,385.92,534a42.19,42.19,0,0,1,7.06.56,33.2,33.2,0,0,1,6,1.61,28,28,0,0,1,5.14,2.55,31,31,0,0,1,4.43,3.38l-2.46,3.93a2.38,2.38,0,0,1-3.53.71c-.72-.41-1.54-.92-2.46-1.52a21.89,21.89,0,0,0-3.37-1.72,26.68,26.68,0,0,0-4.7-1.4,30.63,30.63,0,0,0-6.41-.59,25.91,25.91,0,0,0-9.79,1.77,20.8,20.8,0,0,0-7.47,5.05,22.35,22.35,0,0,0-4.73,8A31.06,31.06,0,0,0,362,566.79a31.52,31.52,0,0,0,1.72,10.79,22.65,22.65,0,0,0,4.92,8.1,20.89,20.89,0,0,0,7.75,5.07,31.44,31.44,0,0,0,18.18.74,34.23,34.23,0,0,0,6.77-2.8V574.61h-10a1.86,1.86,0,0,1-1.36-.49,1.59,1.59,0,0,1-.52-1.21V568Z"/><path class="cls-2" d="M431.11,598.8h-8.67V534.74h8.67Z"/><path class="cls-2" d="M499.37,534.74V598.8H495a3.71,3.71,0,0,1-1.72-.36,4.38,4.38,0,0,1-1.36-1.21L454.89,549c.06.75.1,1.48.14,2.19s0,1.39,0,2V598.8h-7.6V534.74h4.47a6.66,6.66,0,0,1,1,.06,2.9,2.9,0,0,1,.72.23,2.46,2.46,0,0,1,.63.45,8.54,8.54,0,0,1,.67.73L492,584.45c-.06-.78-.11-1.53-.15-2.26s-.07-1.42-.07-2.08V534.74Z"/><path class="cls-2" d="M555.25,591.73l0,7.07H515.73V534.74H555.2v7.06H524.4v21.28h25v6.8h-25v21.85Z"/><path class="cls-2" d="M606.88,591.73l0,7.07H567.36V534.74h39.47v7.06H576v21.28h25v6.8H576v21.85Z"/><path class="cls-2" d="M666.33,598.8h-7.69a3.76,3.76,0,0,1-3.48-1.84l-16.63-22.88a5,5,0,0,0-1.64-1.55,6,6,0,0,0-2.7-.46h-6.57V598.8H619V534.74h18.1A39.54,39.54,0,0,1,647.6,536a20,20,0,0,1,7.31,3.55,14.32,14.32,0,0,1,4.27,5.61,18.81,18.81,0,0,1,1.38,7.35,18.29,18.29,0,0,1-1.07,6.35,16.69,16.69,0,0,1-3.1,5.3,18.76,18.76,0,0,1-5,4,24.69,24.69,0,0,1-6.64,2.51,8.51,8.51,0,0,1,2.87,2.72Zm-29.59-33a21.7,21.7,0,0,0,6.64-.92,13.32,13.32,0,0,0,4.82-2.59,10.78,10.78,0,0,0,2.93-4,13,13,0,0,0,1-5.14q0-5.72-3.76-8.63t-11.27-2.9h-9.47v24.18Z"/><path class="cls-2" d="M683.67,598.8H675V534.74h8.67Z"/><path class="cls-2" d="M751.93,534.74V598.8H747.6a3.68,3.68,0,0,1-1.72-.36,4.17,4.17,0,0,1-1.36-1.21L707.46,549c0,.75.1,1.48.13,2.19s0,1.39,0,2V598.8H700V534.74h4.48a6.85,6.85,0,0,1,1,.06,2.69,2.69,0,0,1,.71.23,2.46,2.46,0,0,1,.63.45,7.16,7.16,0,0,1,.67.73l37.06,48.24c-.06-.78-.11-1.53-.16-2.26s-.06-1.42-.06-2.08V534.74Z"/><path class="cls-2" d="M820.33,568v24.58A35.9,35.9,0,0,1,810,597.79a39.77,39.77,0,0,1-12,1.72,38.73,38.73,0,0,1-13.95-2.39,30.56,30.56,0,0,1-10.61-6.71,29.15,29.15,0,0,1-6.78-10.34,36.06,36.06,0,0,1-2.37-13.28,37.15,37.15,0,0,1,2.31-13.37,29.46,29.46,0,0,1,6.55-10.34,29.06,29.06,0,0,1,10.32-6.69A37.16,37.16,0,0,1,797.08,534a42.23,42.23,0,0,1,7.07.56,33.2,33.2,0,0,1,6,1.61,28.3,28.3,0,0,1,5.14,2.55,31,31,0,0,1,4.43,3.38l-2.46,3.93a2.38,2.38,0,0,1-3.53.71c-.72-.41-1.54-.92-2.46-1.52a22,22,0,0,0-3.38-1.72,26.55,26.55,0,0,0-4.69-1.4,30.66,30.66,0,0,0-6.42-.59A26,26,0,0,0,787,543.3a20.76,20.76,0,0,0-7.46,5.05,22.23,22.23,0,0,0-4.74,8,34.41,34.41,0,0,0,.07,21.27,22.51,22.51,0,0,0,4.92,8.1,20.81,20.81,0,0,0,7.75,5.07,31.4,31.4,0,0,0,18.17.74,33.74,33.74,0,0,0,6.77-2.8V574.61h-10a1.9,1.9,0,0,1-1.37-.49,1.62,1.62,0,0,1-.51-1.21V568Z"/><path class="cls-2" d="M896,591.73l0,7.07H856.49V534.74H896v7.06h-30.8v21.28h25v6.8h-25v21.85Z"/><path class="cls-2" d="M957,598.8H948.4a2.14,2.14,0,0,1-1.54-.52,4.52,4.52,0,0,1-.92-1.14l-17.17-26.91a9.66,9.66,0,0,1-.8,1.84l-16.72,25.07a9,9,0,0,1-1,1.14,1.87,1.87,0,0,1-1.41.52h-8l22-32.9-21.14-31.16h8.63a2.43,2.43,0,0,1,1.38.31,3.06,3.06,0,0,1,.81.89l16.72,25.66a11.9,11.9,0,0,1,.93-2.05L946,536.12a3.51,3.51,0,0,1,.85-1,1.89,1.89,0,0,1,1.17-.38h8.27L935,565.49Z"/><path class="cls-2" d="M985.05,534.74a35.41,35.41,0,0,1,10.57,1.41,20.17,20.17,0,0,1,7.45,4,16.17,16.17,0,0,1,4.4,6.26,22,22,0,0,1,1.45,8.18,20.92,20.92,0,0,1-1.56,8.18,17.62,17.62,0,0,1-4.58,6.39,21.36,21.36,0,0,1-7.47,4.18,32,32,0,0,1-10.26,1.5H974.77v24h-8.63V534.74Zm0,33.21a20.1,20.1,0,0,0,6.55-1,13.64,13.64,0,0,0,4.78-2.75,11.28,11.28,0,0,0,2.93-4.22,14.39,14.39,0,0,0,1-5.41c0-4.09-1.26-7.27-3.78-9.57s-6.34-3.44-11.47-3.44H974.77V568Z"/><path class="cls-2" d="M1079,566.79a37,37,0,0,1-2.28,13.21,30.27,30.27,0,0,1-6.44,10.35,28.84,28.84,0,0,1-10,6.73,35.93,35.93,0,0,1-25.77,0,28.85,28.85,0,0,1-10-6.73,30.27,30.27,0,0,1-6.44-10.35,39.41,39.41,0,0,1,0-26.42,30.55,30.55,0,0,1,6.44-10.37,28.81,28.81,0,0,1,10-6.77,35.51,35.51,0,0,1,25.77,0,28.8,28.8,0,0,1,10,6.77,30.55,30.55,0,0,1,6.44,10.37A37,37,0,0,1,1079,566.79Zm-8.9,0a32.58,32.58,0,0,0-1.61-10.59,22.33,22.33,0,0,0-4.56-7.94,19.78,19.78,0,0,0-7.15-5,25.93,25.93,0,0,0-18.73,0,20.07,20.07,0,0,0-7.18,5,22.22,22.22,0,0,0-4.58,7.94,35.57,35.57,0,0,0,0,21.16,22.17,22.17,0,0,0,4.58,7.91,19.92,19.92,0,0,0,7.18,5,26.35,26.35,0,0,0,18.73,0,19.64,19.64,0,0,0,7.15-5,22.28,22.28,0,0,0,4.56-7.91A32.41,32.41,0,0,0,1070.12,566.79Z"/></svg>